<svg xmlns="http://www.w3.org/2000/svg" version="1.1" xmlns:xlink="http://www.w3.org/1999/xlink" xmlns:svgjs="http://svgjs.dev/svgjs" width="100%" height="100%" viewBox="0 0 1000 600"><rect width="1000" height="600" x="0" y="0" fill="#05739c"/><g><rect width="333.3333333333333" height="333.3333333333333" rx="13.333333333333334" ry="13.333333333333334" y="327.2751172101995" fill="#f49f0a" transform="matrix(0.4097649987061457,0,0,0.4097649987061457,0,97.59994419190784)" x="305.052978515625"/><path d="M353.63905511398366 568.9417780810719L332.8656189390677 568.9417780810719L332.8656189390677 418.94177622740244L353.63905511398366 418.94177622740244L353.63905511398366 483.23616859918184L435.21427377746943 483.23616859918184L435.21427377746943 418.94177622740244L456.20030359745033 418.94177622740244L456.20030359745033 568.9417780810719L435.21427377746943 568.9417780810719L435.21427377746943 501.367369471148L353.63905511398366 501.367369471148L353.63905511398366 568.9417780810719ZM610.5736604353126 568.9417780810719L493.79900825321926 568.9417780810719L493.79900825321926 418.94177622740244L609.2677280441994 418.94177622740244L609.2677280441994 436.8603834543037L514.5724444281352 436.8603834543037L514.5724444281352 483.23616859918184L599.6402729748306 483.23616859918184L599.6402729748306 501.15477582608304L514.5724444281352 501.15477582608304L514.5724444281352 551.0231708541708L610.5736604353126 551.0231708541708L610.5736604353126 568.9417780810719Z " fill="#f0f4f8" transform="matrix(0.4097649987061457,0,0,0.4097649987061457,0,97.59994419190784)"/><path d="M737.9719374873282 538.7852265363606L721.7196382778883 538.7852265363606L766.6551737691441 425.08819283179486L787.3734022231042 425.08819283179486L832.4470592373864 538.7852265363606L815.3660308897881 538.7852265363606L804.2702685400006 510.60843583897474L748.9065580602515 510.60843583897474L737.9719374873282 538.7852265363606ZM767.9673282378949 461.5522749107647L754.0400746660662 497.1876278515761L798.9756101573219 497.1876278515761L785.2094983623572 461.5522749107647Q784.703052777927 460.055958411312 783.7131818629045 457.4086292199726Q782.723310947882 454.7613000286333 781.5722982559953 451.5154442375129Q780.398265310271 448.2926087002302 779.2472526183842 444.88561113224563Q778.0732196726599 441.5016338180988 777.0833487576374 438.6701425960576L777.0833487576374 438.6701425960576L776.0934778426148 438.6701425960576Q774.9424651507281 441.9850591486912 773.4461486512755 446.2898466163474Q771.9498321518228 450.61765433784126 770.45351565237 454.6692190132824Q768.9571991529174 458.7207836887235 767.9673282378949 461.5522749107647L767.9673282378949 461.5522749107647ZM878.1883036129627 540.7649683664056L878.1883036129627 540.7649683664056Q865.5962247637226 540.7649683664056 857.0557105899235 535.884674552806Q848.5151964161244 531.0043807392067 844.1413481869549 520.8064082890907Q839.744479703948 510.60843583897474 839.744479703948 495.18486576769334L839.744479703948 495.18486576769334Q839.744479703948 479.7843159502496 844.1413481869549 469.6784245154846Q848.5151964161244 459.5495128268819 857.2168523667876 454.57713799793146Q865.9185083174508 449.604763168981 878.6947491973929 449.604763168981L878.6947491973929 449.604763168981Q887.6496279402712 449.604763168981 894.1873800301876 451.9298088065921Q900.7251321201038 454.25485444420315 905.0529398415978 458.7207836887235Q909.357727309254 463.2097331870815 911.4295501546499 469.4942624847827Q913.501373000046 475.8018120363217 913.501373000046 483.92796164104163L913.501373000046 483.92796164104163L898.7453902900588 483.92796164104163Q898.7453902900588 476.3082576207518 896.6735674446628 471.40494355331464Q894.6017445992668 466.52464973971513 890.1358153547465 464.10752308675313Q885.6468658563884 461.7134166876288 878.349445389827 461.7134166876288L878.349445389827 461.7134166876288Q871.0750451771031 461.7134166876288 865.7573665405866 464.9362522249115Q860.4627081579081 468.1821080160319 857.6312169358667 475.13422467502744Q854.8227459676633 482.1093615878607 854.8227459676633 493.5274074913765L854.8227459676633 493.5274074913765L854.8227459676633 497.02648607471195Q854.8227459676633 507.79996487077125 857.5621561743536 514.9132233066309Q860.3015663810438 522.0495019963282 865.5962247637226 525.3644185489619Q870.8908831464013 528.6793351015956 878.5336074205288 528.6793351015956L878.5336074205288 528.6793351015956Q885.9921696639544 528.6793351015956 890.5501799238257 526.0320059102562Q895.1081901836969 523.361656465079 897.180013029093 518.3892816361287Q899.251835874489 513.4169068071783 899.251835874489 506.4647901481827L899.251835874489 506.4647901481827L913.501373000046 506.4647901481827Q913.501373000046 513.7622106147442 911.4295501546499 520.0467399124454Q909.357727309254 526.3542894639845 905.0529398415978 531.0043807392067Q900.7251321201038 535.6314517605911 894.0952990148367 538.2097201904171Q887.4654659095694 540.7649683664056 878.1883036129627 540.7649683664056ZM952.9350678240835 540.7649683664056L952.9350678240835 540.7649683664056Q948.1468550258348 540.7649683664056 943.3356219737485 539.6139556745189Q938.5243889216622 538.4629429826323 934.3807432308702 535.7925935374551Q930.2370975400781 533.1452643461158 927.750910125603 528.4261123093804Q925.2647227111278 523.7069602726451 925.2647227111278 516.5706815829477L925.2647227111278 516.5706815829477Q925.2647227111278 507.6158028400694 929.569510178784 501.81469887296055Q933.87429764644 496.0135949058517 941.5860826820808 492.790759368569Q949.2978677177215 489.56792383128635 959.9102047369167 488.32483012404873Q970.5225417561118 487.0817364168111 982.953478828488 487.0817364168111L982.953478828488 487.0817364168111L982.953478828488 477.13698675891027Q982.953478828488 472.32575370682395 981.2960205521711 468.8496953773262Q979.6385622758543 465.3506167939907 975.4028355697113 463.46295597929657Q971.1671088635684 461.5522749107647 963.3862630664144 461.5522749107647L963.3862630664144 461.5522749107647Q955.9277008229888 461.5522749107647 951.5308323399817 463.46295597929657Q947.1339638569746 465.3506167939907 945.4074448191445 468.3432497928961Q943.6579055274768 471.3358827918014 943.6579055274768 474.9730828981633L943.6579055274768 474.9730828981633L943.6579055274768 477.4592703126385L929.569510178784 477.4592703126385Q929.4083684019198 476.63054117448013 929.4083684019198 475.8018120363217Q929.4083684019198 474.9730828981633 929.4083684019198 473.82207020627663L929.4083684019198 473.82207020627663Q929.4083684019198 465.85706237842084 933.8052368849269 460.4703229803912Q938.202105367934 455.0835835823616 946.1440929419521 452.3441733756713Q954.1091007698078 449.604763168981 964.376133981437 449.604763168981L964.376133981437 449.604763168981Q975.3107545543603 449.604763168981 982.7002560362728 452.7585379447505Q990.0667372643475 455.91231272052 993.7960183860604 461.7134166876288Q997.5252995077732 467.5145206547376 997.5252995077732 475.6406702594576L997.5252995077732 475.6406702594576L997.5252995077732 522.8782311344867Q997.5252995077732 526.0320059102562 999.0216160072258 527.2750996174938Q1000.5179325066786 528.5181933247313 1002.6588161135878 528.5181933247313L1002.6588161135878 528.5181933247313L1009.1275074419908 528.5181933247313L1009.1275074419908 538.1176391750662Q1006.8024618043798 539.1075100900888 1003.9939908361763 539.867178466734Q1001.1855198679727 540.6038265895415 997.5252995077732 540.6038265895415L997.5252995077732 540.6038265895415Q993.220512040117 540.6038265895415 990.4120410719136 538.8773075517115Q987.5805498498723 537.1277682600437 986.0842333504197 534.0660744996251Q984.6109371048046 531.0043807392067 984.1044915203746 527.1830186021429L984.1044915203746 527.1830186021429L982.953478828488 527.1830186021429Q979.9608458295825 531.3266642929349 975.4028355697113 534.3883580533534Q970.8448253098401 537.450051813772 965.2048631195953 539.1075100900888Q959.5649009293506 540.7649683664056 952.9350678240835 540.7649683664056ZM956.595288184283 528.5181933247313L956.595288184283 528.5181933247313Q961.8899465669617 528.5181933247313 966.609098603697 526.8607350484147Q971.3512708942702 525.2032767720978 974.9884710006321 522.1185627578415Q978.625671106994 519.056868997423 980.7895749677409 514.7520815297668Q982.953478828488 510.4472940621106 982.953478828488 505.313777456296L982.953478828488 505.313777456296L982.953478828488 498.0163569897345Q969.5096505872516 498.0163569897345 960.0713465137808 499.5126734891872Q950.6330424403101 500.98596973480215 945.5685865960087 504.80733187186587Q940.5041307517074 508.62869400892964 940.5041307517074 515.5808106679251L940.5041307517074 515.5808106679251Q940.5041307517074 520.0467399124454 942.5068928355902 522.8782311344867Q944.4866346656352 525.6867021026901 948.1468550258348 527.0909375867918Q951.7840551321967 528.5181933247313 956.595288184283 528.5181933247313ZM1051.0704099343411 540.7649683664056L1051.0704099343411 540.7649683664056Q1040.296931138282 540.7649683664056 1032.5851461026414 535.976755568157Q1024.8733610670006 531.1655225160707 1020.6606546146953 520.9675500659548Q1016.4249279085524 510.76957761583884 1016.4249279085524 494.5402986602368L1016.4249279085524 494.5402986602368Q1016.4249279085524 479.1167285889553 1020.7297153762086 469.17197893105447Q1025.0345028438646 459.22722927315357 1032.6772271179923 454.4159962210673Q1040.296931138282 449.604763168981 1050.402822573047 449.604763168981L1050.402822573047 449.604763168981Q1056.2039265401559 449.604763168981 1061.1763013691063 450.93993789156957Q1066.1486761980568 452.2751126141581 1070.0390990966337 455.0835835823616Q1073.9295219952105 457.89205455056504 1076.922154994116 462.54214582578726L1076.922154994116 462.54214582578726L1077.9120259091385 462.54214582578726L1077.9120259091385 418.94178505712L1092.5068668422614 418.94178505712L1092.5068668422614 538.7852265363606L1080.7435171311797 538.7852265363606L1079.4083424085911 526.3542894639845L1078.2573297167046 526.3542894639845Q1073.7683802183465 533.651709930546 1066.6551217824867 537.2198492753946Q1059.5188430927894 540.7649683664056 1051.0704099343411 540.7649683664056ZM1054.546468263839 528.0117477403012L1054.546468263839 528.0117477403012Q1062.833759645423 528.0117477403012 1067.9672762512378 524.3745476339393Q1073.100792857052 520.7143272737397 1075.5179195100143 513.7622106147442Q1077.9120259091385 506.78707370191097 1077.9120259091385 496.5200404902818L1077.9120259091385 496.5200404902818L1077.9120259091385 493.8727112989425Q1077.9120259091385 484.9178325560642 1076.0934258559575 478.79444503522706Q1074.2748258027766 472.6480372605522 1071.121051027007 469.0108371541903Q1067.9672762512378 465.3506167939907 1063.8236305604455 463.87732054837574Q1059.6799848696537 462.3810040489231 1055.052913848269 462.3810040489231L1055.052913848269 462.3810040489231Q1046.9267642435493 462.3810040489231 1041.7932476377346 465.60383958620577Q1036.6367107780825 468.8496953773262 1034.1505233636071 475.70973102097076Q1031.6643359491318 482.5927869184531 1031.6643359491318 493.5274074913765L1031.6643359491318 493.5274074913765L1031.6643359491318 497.02648607471195Q1031.6643359491318 508.28339020136366 1034.334685394309 515.1664460988459Q1036.9820145856484 522.0495019963282 1042.023450176112 525.0191147413959Q1047.0879060204134 528.0117477403012 1054.546468263839 528.0117477403012ZM1150.172602705784 540.7649683664056L1150.172602705784 540.7649683664056Q1137.2582403028155 540.7649683664056 1128.3954425752881 535.884674552806Q1119.509624593923 531.0043807392067 1114.9516143340516 520.8754690506039Q1110.3936040741805 510.76957761583884 1110.3936040741805 495.18486576769334L1110.3936040741805 495.18486576769334Q1110.3936040741805 479.4390121426836 1114.9516143340516 469.42520172326954Q1119.509624593923 459.3883710500177 1128.4645033368013 454.5080772364182Q1137.4193820796795 449.604763168981 1150.8401900670783 449.604763168981L1150.8401900670783 449.604763168981Q1163.1099853625901 449.604763168981 1171.3972767441742 454.3469354595541Q1179.6845681257582 459.06608749628947 1183.9202948319012 468.435330808247Q1188.1330012842066 477.7815538663668 1188.1330012842066 491.86994921505965L1188.1330012842066 491.86994921505965L1188.1330012842066 498.8450861278929L1125.4948905917336 498.8450861278929Q1125.8171741454619 509.2732611163862 1128.5565843521522 515.9951752370043Q1131.2959945588425 522.7170893576226 1136.7517947183853 525.778783118041Q1142.2306151317657 528.8404768784596 1150.51790651335 528.8404768784596L1150.51790651335 528.8404768784596Q1156.1578687035947 528.8404768784596 1160.3705751558998 527.4362413943579Q1164.6063018620428 526.0320059102562 1167.5068538455973 523.361656465079Q1170.4074058291517 520.7143272737397 1171.9037223286043 517.0771271673779Q1173.3770185742192 513.4169068071783 1173.5611806049212 509.11211933952205L1173.5611806049212 509.11211933952205L1187.8107177304782 509.11211933952205Q1187.649575953614 516.0872562523552 1185.1633885391389 521.9574209809773Q1182.6772011246635 527.8506059634371 1177.8659680725773 531.9942516542292Q1173.054735020491 536.1378973450212 1166.1026183614954 538.4629429826323Q1159.1274814486621 540.7649683664056 1150.172602705784 540.7649683664056ZM1125.8171741454619 487.9104655549695L1125.8171741454619 487.9104655549695L1173.054735020491 487.9104655549695Q1173.054735020491 480.613045088408 1171.3972767441742 475.6406702594576Q1169.7398184678573 470.66829543050716 1166.6781247074387 467.5145206547376Q1163.6164309470203 464.3607458789682 1159.5418460177414 462.9565103948664Q1155.4902813423005 461.5522749107647 1150.3567647364857 461.5522749107647L1150.3567647364857 461.5522749107647Q1142.7140404623583 461.5522749107647 1137.4193820796795 464.3607458789682Q1132.1247236970007 467.19223710100937 1129.2932324749597 472.99334106811824Q1126.484761506756 478.79444503522706 1125.8171741454619 487.9104655549695ZM1220.7987414799502 538.7852265363606L1206.2039005468273 538.7852265363606L1206.2039005468273 451.6075252528638L1217.967250257909 451.6075252528638L1219.3024249804976 464.7060496865342L1220.4534376723843 464.7060496865342Q1223.768354225018 459.3883710500177 1227.91199991581 456.0734544973841Q1232.055645606602 452.7585379447505 1237.0280204355522 451.19316068378464Q1242.000395264503 449.604763168981 1247.8014992316116 449.604763168981L1247.8014992316116 449.604763168981Q1256.2499323900597 449.604763168981 1262.3963401647347 453.0117607369656Q1268.5197276855718 456.41875830495013 1271.5123606844772 464.7060496865342L1271.5123606844772 464.7060496865342L1272.5022315994997 464.7060496865342Q1275.656006375269 459.3883710500177 1279.7996520660613 456.16553551273506Q1283.943297756853 452.9196797216146 1289.0768143626678 451.2622214452978Q1294.2103309684821 449.604763168981 1300.0114349355913 449.604763168981L1300.0114349355913 449.604763168981Q1307.9764427634468 449.604763168981 1313.93868850742 452.3441733756713Q1319.900934251393 455.0835835823616 1323.3079318193775 461.29905211854964Q1326.6919091335244 467.5145206547376 1326.6919091335244 477.96571589706866L1326.6919091335244 477.96571589706866L1326.6919091335244 538.7852265363606L1312.120088454239 538.7852265363606L1312.120088454239 480.267741280842Q1312.120088454239 474.9730828981633 1310.8769947470014 471.49702456866555Q1309.6339010397637 468.0209662391678 1307.3088554021526 466.1102851706359Q1304.9838097645415 464.19960410210405 1301.922116004123 463.37087496394565Q1298.8604222437045 462.54214582578726 1295.3843639142067 462.54214582578726L1295.3843639142067 462.54214582578726Q1289.5832599470978 462.54214582578726 1284.6799458796606 465.5347788246926Q1279.7996520660613 468.5043915697602 1276.8070190671558 474.1443537600049Q1273.837406322088 479.7843159502496 1273.837406322088 487.5651617474035L1273.837406322088 487.5651617474035L1273.837406322088 538.7852265363606L1259.2425653889652 538.7852265363606L1259.2425653889652 480.267741280842Q1259.2425653889652 474.9730828981633 1257.9073906663766 471.49702456866555Q1256.5952361976258 468.0209662391678 1254.4313323368788 466.1102851706359Q1252.2904487299697 464.19960410210405 1249.2057347157133 463.37087496394565Q1246.1440409552947 462.54214582578726 1242.8291244026614 462.54214582578726L1242.8291244026614 462.54214582578726Q1236.8668786586882 462.54214582578726 1231.802422814387 465.5347788246926Q1226.7609872239232 468.5043915697602 1223.768354225018 474.1443537600049Q1220.7987414799502 479.7843159502496 1220.7987414799502 487.5651617474035L1220.7987414799502 487.5651617474035L1220.7987414799502 538.7852265363606ZM1363.340153243196 435.19408426655986L1348.745312310073 435.19408426655986L1348.745312310073 418.94178505712L1363.340153243196 418.94178505712L1363.340153243196 435.19408426655986ZM1363.340153243196 538.7852265363606L1348.745312310073 538.7852265363606L1348.745312310073 451.6075252528638L1363.340153243196 451.6075252528638L1363.340153243196 538.7852265363606ZM1419.1872890535376 540.7649683664056L1419.1872890535376 540.7649683664056Q1406.5952102042972 540.7649683664056 1398.054696030498 535.884674552806Q1389.5141818566988 531.0043807392067 1385.1173133736918 520.8064082890907Q1380.7434651445226 510.60843583897474 1380.7434651445226 495.18486576769334L1380.7434651445226 495.18486576769334Q1380.7434651445226 479.7843159502496 1385.1173133736918 469.6784245154846Q1389.5141818566988 459.5495128268819 1398.2158378073623 454.57713799793146Q1406.9174937580253 449.604763168981 1419.6937346379675 449.604763168981L1419.6937346379675 449.604763168981Q1428.6255931270082 449.604763168981 1435.1863654707622 451.9298088065921Q1441.7241175606785 454.25485444420315 1446.0289050283347 458.7207836887235Q1450.3567127498284 463.2097331870815 1452.4285355952245 469.4942624847827Q1454.5003584406206 475.8018120363217 1454.5003584406206 483.92796164104163L1454.5003584406206 483.92796164104163L1439.7443757306335 483.92796164104163Q1439.7443757306335 476.3082576207518 1437.6725528852373 471.40494355331464Q1435.6007300398412 466.52464973971513 1431.1117805414835 464.10752308675313Q1426.6458512969632 461.7134166876288 1419.3484308304016 461.7134166876288L1419.3484308304016 461.7134166876288Q1412.05101036384 461.7134166876288 1406.7563519811613 464.9362522249115Q1401.4616935984825 468.1821080160319 1398.6302023764415 475.13422467502744Q1395.8217314082378 482.1093615878607 1395.8217314082378 493.5274074913765L1395.8217314082378 493.5274074913765L1395.8217314082378 497.02648607471195Q1395.8217314082378 507.79996487077125 1398.5611416149281 514.9132233066309Q1401.2775315677807 522.0495019963282 1406.5952102042972 525.3644185489619Q1411.889868586976 528.6793351015956 1419.5095726072657 528.6793351015956L1419.5095726072657 528.6793351015956Q1426.9681348506913 528.6793351015956 1431.5261451105625 526.0320059102562Q1436.0841553704338 523.361656465079 1438.15597821583 518.3892816361287Q1440.2278010612258 513.4169068071783 1440.2278010612258 506.4647901481827L1440.2278010612258 506.4647901481827L1454.5003584406206 506.4647901481827Q1454.5003584406206 513.7622106147442 1452.4285355952245 520.0467399124454Q1450.3567127498284 526.3542894639845 1446.0289050283347 531.0043807392067Q1441.7241175606785 535.6314517605911 1435.0942844554113 538.2097201904171Q1428.464451350144 540.7649683664056 1419.1872890535376 540.7649683664056ZM1551.277505574452 540.7649683664056L1551.277505574452 540.7649683664056Q1542.0003432778456 540.7649683664056 1533.4598291040463 538.9463683132246Q1524.942335184085 537.1277682600437 1518.3125020788177 533.0762035846026Q1511.6826689735506 529.0016186553238 1507.7692258211357 522.5329273269207Q1503.8788029225589 516.0872562523552 1503.8788029225589 506.6259319250468L1503.8788029225589 506.6259319250468Q1503.8788029225589 505.7972027868884 1503.9708839379098 504.96847364873Q1504.0399446994231 504.13974451057163 1504.0399446994231 503.31101537241324L1504.0399446994231 503.31101537241324L1519.9699603551346 503.31101537241324Q1519.9699603551346 503.8174609568434 1519.8778793397837 504.89941288721684Q1519.7857983244328 505.9583445637526 1519.7857983244328 506.78707370191097L1519.7857983244328 506.78707370191097Q1519.7857983244328 513.4169068071783 1523.7683022383605 518.0669980824005Q1527.7508061522885 522.7170893576226 1534.795003826635 524.9500539798827Q1541.8392015009815 527.1830186021429 1550.7940802438598 527.1830186021429L1550.7940802438598 527.1830186021429Q1554.7765841577877 527.1830186021429 1559.150432386957 526.6765730177127Q1563.547300869964 526.1931476871202 1567.6218857992428 524.9500539798827Q1571.6734504746842 523.7069602726451 1574.8962860119666 521.635137427249Q1578.142141803087 519.5633145818531 1580.0528228716191 516.5016208214345Q1581.9404836863132 513.4169068071783 1581.9404836863132 508.9509775626579L1581.9404836863132 508.9509775626579Q1581.9404836863132 503.31101537241324 1578.7176481490305 499.5817342507004Q1575.4948126117476 495.8524531289876 1570.1771339752313 493.4583467298633Q1564.8824755925525 491.0412200769013 1558.1605614719344 489.1535592622071Q1551.461667605154 487.24287819367527 1544.3253889154566 485.4242781404943Q1537.1891102257594 483.5826578334756 1530.4902163589788 481.1885514343513Q1523.7683022383605 478.79444503522706 1518.473643855682 475.22630569037835Q1513.1559652191656 471.65816634552965 1509.9331296818827 466.363507962851Q1506.7102941446 461.0458293263345 1506.7102941446 453.42612530604475L1506.7102941446 453.42612530604475Q1506.7102941446 446.2898466163474 1509.6108461281544 440.6729046799404Q1512.511398111709 435.0329424896957 1518.2204210634668 431.14251959111874Q1523.9294440152248 427.22907643870406 1532.4008974275107 425.15725359330804Q1540.849330585959 423.085430747912 1551.7839511588822 423.085430747912L1551.7839511588822 423.085430747912Q1560.7388299017607 423.085430747912 1568.4506149374013 424.9961118164439Q1576.1393797192043 426.9067928849758 1582.0325647016641 430.79721578355276Q1587.9257496841237 434.6876386821297 1591.2406662367575 440.6729046799404Q1594.555582789391 446.6351504239134 1594.555582789391 455.0835835823616L1594.555582789391 455.0835835823616L1594.555582789391 457.06332541240664L1578.9708709412455 457.06332541240664L1578.9708709412455 454.57713799793146Q1578.9708709412455 448.96019606152447 1575.4948126117476 444.9776921475966Q1571.9957340284122 440.9951882336687 1565.9644275229261 438.83128437292174Q1559.9101007636023 436.69040076601254 1552.2903967433124 436.69040076601254L1552.2903967433124 436.69040076601254Q1542.3456470854114 436.69040076601254 1535.7158139801443 438.6010818345444Q1529.0859808748771 440.48874264923853 1525.8401250837567 444.05688199408723Q1522.617289546474 447.6250213389359 1522.617289546474 452.0909505834562L1522.617289546474 452.0909505834562Q1522.617289546474 457.2474874431085 1525.8401250837567 460.7235457726063Q1529.0859808748771 464.19960410210405 1534.380639257556 466.43256872436416Q1539.6752976402345 468.66553334662433 1546.4892927762037 470.507153653643Q1553.2802676583349 472.32575370682395 1560.3244653326815 474.2364347753558Q1567.368663007028 476.12409559005 1574.0675568738081 478.541222243012Q1580.7894709944264 480.93532864213626 1586.1762103924561 484.50346798698496Q1591.5629497904858 488.07160733183366 1594.7167245662552 493.4583467298633Q1597.870499342025 498.8450861278929 1597.870499342025 506.6259319250468L1597.870499342025 506.6259319250468Q1597.870499342025 518.7345854436946 1591.885233344214 526.2622084486335Q1585.9229876002412 533.8128517074101 1575.4948126117476 537.2889100369079Q1565.0436173694168 540.7649683664056 1551.277505574452 540.7649683664056ZM1625.7019862318446 568.9417590637914L1625.7019862318446 568.9417590637914Q1621.7194823179166 568.9417590637914 1618.8189303343622 568.366252717848Q1615.9183783508076 567.7907463719047 1614.9285074357851 567.6296045950406L1614.9285074357851 567.6296045950406L1614.9285074357851 557.0172675758454L1622.2259279023467 557.0172675758454Q1626.2084318162745 557.0172675758454 1630.0067736995006 555.3598092995287Q1633.8281358365646 553.7023510232118 1637.143052389198 549.7198471092839Q1640.4579689418317 545.7373431953561 1642.7830145794428 538.7852265363606L1642.7830145794428 538.7852265363606L1608.9662616918124 451.6075252528638L1624.2056697323917 451.6075252528638L1641.6089816337185 496.5200404902818Q1642.7830145794428 499.67381526605135 1644.3483918404088 504.23182552592255Q1645.9367893552123 508.7898357857938 1647.502166616178 513.6010688378801Q1649.0675438771439 518.3892816361287 1650.0804350460041 522.0495019963282L1650.0804350460041 522.0495019963282L1651.0703059610266 522.0495019963282Q1651.737893322321 519.4021728049889 1652.7277642373435 516.0872562523552Q1653.7176351523663 512.7723396997217 1654.7995870827397 509.20420035487297Q1655.881539013113 505.6360610100243 1656.9404706896487 502.4132254727416Q1658.0224226200223 499.1673696816212 1658.6900099813167 496.68118226714597L1658.6900099813167 496.68118226714597L1673.445992691304 451.6075252528638L1688.2019754012908 451.6075252528638L1658.6900099813167 536.2990391218852Q1656.2038225668414 543.4353178115828 1653.2111895679361 549.4666243170689Q1650.2415768228686 555.5209510763927 1646.581356462669 559.8257385440489Q1642.9441563563068 564.1535462655429 1637.8106397504923 566.5476526646671Q1632.6771231446778 568.9417590637914 1625.7019862318446 568.9417590637914ZM1732.2857615005505 540.7649683664056L1732.2857615005505 540.7649683664056Q1723.3308827576723 540.7649683664056 1716.5399078755406 538.9463683132246Q1709.7489329934094 537.1277682600437 1705.2599834950513 533.651709930546Q1700.7940542505312 530.1756516010482 1698.46900861292 525.3644185489619Q1696.143962975309 520.5531854968756 1696.143962975309 514.4297979760386L1696.143962975309 514.4297979760386Q1696.143962975309 513.6010688378801 1696.143962975309 512.8414004612349Q1696.143962975309 512.1047523384275 1696.305104752173 511.5983067539973L1696.305104752173 511.5983067539973L1710.738803908432 511.5983067539973Q1710.5776621315679 512.2658941152915 1710.5776621315679 512.7723396997217Q1710.5776621315679 513.255765030314 1710.5776621315679 513.7622106147442L1710.5776621315679 513.7622106147442Q1710.738803908432 519.5633145818531 1713.6393558919865 522.8782311344867Q1716.5399078755406 526.1931476871202 1721.6734244813554 527.505302155871Q1726.8069410871701 528.8404768784596 1733.114490638709 528.8404768784596L1733.114490638709 528.8404768784596Q1738.5702907982518 528.8404768784596 1743.220382073474 527.4362413943579Q1747.870473348696 526.0320059102562 1750.5868633015486 523.1314539267017Q1753.3262735082387 520.2309019431473 1753.3262735082387 515.7419524447894L1753.3262735082387 515.7419524447894Q1753.3262735082387 510.2861522852465 1749.7581341633902 507.385600301692Q1746.2130150723794 504.4850483181376 1740.4119111052703 502.8275900418208Q1734.6108071381616 501.170131765504 1728.3032575866225 499.32851145848537L1728.3032575866225 499.32851145848537Q1723.008599203944 497.8552152128704 1717.6909205674276 496.0135949058517Q1712.3962621847488 494.19499485267073 1708.1605354786059 491.5476656613314Q1703.9478290263007 488.90033646999206 1701.3695605964745 484.6646097638491Q1698.7912921666482 480.45190331154384 1698.7912921666482 473.98321198314073L1698.7912921666482 473.98321198314073Q1698.7912921666482 468.1821080160319 1701.2084188196104 463.6931585176739Q1703.6025252187344 459.22722927315357 1708.0914747170925 456.0734544973841Q1712.5574039616129 452.9196797216146 1718.934014274665 451.35430246064874Q1725.3106245877173 449.78892519968286 1733.114490638709 449.78892519968286L1733.114490638709 449.78892519968286Q1741.401782020293 449.78892519968286 1747.6172505564807 451.6075252528638Q1753.832719092669 453.42612530604475 1757.976364783461 456.7410418586784Q1762.1200104742531 460.055958411312 1764.0997523042981 464.29168511745496Q1766.102514388181 468.5043915697602 1766.102514388181 473.3156246218465L1766.102514388181 473.3156246218465Q1766.102514388181 474.30549553686905 1766.102514388181 475.22630569037835Q1766.102514388181 476.12409559005 1765.918352357479 476.63054117448013L1765.918352357479 476.63054117448013L1751.6688152319223 476.63054117448013L1751.6688152319223 474.8119411212992Q1751.6688152319223 471.49702456866555 1749.942296194092 468.435330808247Q1748.1927569024244 465.3506167939907 1743.9570301962815 463.46295597929657Q1739.7443237439763 461.5522749107647 1732.2857615005505 461.5522749107647L1732.2857615005505 461.5522749107647Q1727.474528448464 461.5522749107647 1723.9984701189665 462.2889230335722Q1720.5224117894688 463.04859141021734 1718.1973661518575 464.6139686711832Q1715.8723205142467 466.1793459321491 1714.72130782236 468.2511687775451Q1713.5472748766354 470.3229916229412 1713.5472748766354 472.99334106811824L1713.5472748766354 472.99334106811824Q1713.5472748766354 477.29812853577437 1716.3787660986766 479.62317417338545Q1719.1872370668802 481.9251995571588 1723.9063891036155 483.4215160566115Q1728.6255411403508 484.9178325560642 1734.1043615537315 486.7364326092451L1734.1043615537315 486.7364326092451Q1739.9054655208404 488.3938908855619 1745.9597922801643 490.1434301772297Q1752.0141190394882 491.86994921505965 1757.0555546299518 494.5402986602368Q1762.1200104742531 497.1876278515761 1765.1817042346718 501.74563811144736Q1768.2433979950904 506.30364837131856 1768.2433979950904 513.7622106147442L1768.2433979950904 513.7622106147442Q1768.2433979950904 520.7143272737397 1765.596068803751 525.8478438795544Q1762.9487396124116 531.0043807392067 1758.0454255449743 534.3192972918403Q1753.1651317313747 537.6342138444738 1746.6273796414587 539.1995911054397Q1740.0666072977044 540.7649683664056 1732.2857615005505 540.7649683664056ZM1806.7102421579427 540.7649683664056L1806.7102421579427 540.7649683664056Q1799.8962470219737 540.7649683664056 1796.0979051387478 538.2097201904171Q1792.276543001684 535.6314517605911 1790.6190847253672 531.4187453082858Q1788.9616264490503 527.1830186021429 1788.9616264490503 522.3717855500565L1788.9616264490503 522.3717855500565L1788.9616264490503 463.87732054837574L1777.7047223223988 463.87732054837574L1777.7047223223988 451.6075252528638L1789.3069302566166 451.6075252528638L1791.9542594479556 427.22907643870406L1803.5564673821734 427.22907643870406L1803.5564673821734 451.6075252528638L1819.9699083684775 451.6075252528638L1819.9699083684775 463.87732054837574L1803.5564673821734 463.87732054837574L1803.5564673821734 520.2309019431473Q1803.5564673821734 524.3745476339393 1805.0527838816263 526.4463704793354Q1806.5260801272414 528.5181933247313 1810.6697258180332 528.5181933247313L1810.6697258180332 528.5181933247313L1819.9699083684775 528.5181933247313L1819.9699083684775 538.1176391750662Q1818.3124500921606 538.9463683132246 1815.9874044545497 539.4528138976548Q1813.6623588169384 539.9362392282471 1811.2682524178142 540.3506037973264Q1808.8511257648522 540.7649683664056 1806.7102421579427 540.7649683664056ZM1870.3382237654384 540.7649683664056L1870.3382237654384 540.7649683664056Q1857.4238613624696 540.7649683664056 1848.5610636349422 535.884674552806Q1839.6752456535771 531.0043807392067 1835.117235393706 520.8754690506039Q1830.5592251338346 510.76957761583884 1830.5592251338346 495.18486576769334L1830.5592251338346 495.18486576769334Q1830.5592251338346 479.4390121426836 1835.117235393706 469.42520172326954Q1839.6752456535771 459.3883710500177 1848.6301243964556 454.5080772364182Q1857.585003139334 449.604763168981 1871.0058111267324 449.604763168981L1871.0058111267324 449.604763168981Q1883.2756064222447 449.604763168981 1891.5628978038287 454.3469354595541Q1899.8501891854123 459.06608749628947 1904.0859158915553 468.435330808247Q1908.2986223438609 477.7815538663668 1908.2986223438609 491.86994921505965L1908.2986223438609 491.86994921505965L1908.2986223438609 498.8450861278929L1845.660511651388 498.8450861278929Q1845.9827952051162 509.2732611163862 1848.7222054118063 515.9951752370043Q1851.4616156184968 522.7170893576226 1856.9174157780396 525.778783118041Q1862.3962361914203 528.8404768784596 1870.6835275730043 528.8404768784596L1870.6835275730043 528.8404768784596Q1876.323489763249 528.8404768784596 1880.5361962155541 527.4362413943579Q1884.771922921697 526.0320059102562 1887.6724749052516 523.361656465079Q1890.5730268888058 520.7143272737397 1892.0693433882586 517.0771271673779Q1893.5426396338737 513.4169068071783 1893.7268016645755 509.11211933952205L1893.7268016645755 509.11211933952205L1907.9763387901323 509.11211933952205Q1907.8151970132683 516.0872562523552 1905.329009598793 521.9574209809773Q1902.842822184318 527.8506059634371 1898.0315891322318 531.9942516542292Q1893.2203560801452 536.1378973450212 1886.26823942115 538.4629429826323Q1879.2931025083165 540.7649683664056 1870.3382237654384 540.7649683664056ZM1845.9827952051162 487.9104655549695L1845.9827952051162 487.9104655549695L1893.2203560801452 487.9104655549695Q1893.2203560801452 480.613045088408 1891.5628978038287 475.6406702594576Q1889.9054395275114 470.66829543050716 1886.8437457670932 467.5145206547376Q1883.7820520066746 464.3607458789682 1879.7074670773957 462.9565103948664Q1875.6559024019546 461.5522749107647 1870.5223857961403 461.5522749107647L1870.5223857961403 461.5522749107647Q1862.8796615220128 461.5522749107647 1857.585003139334 464.3607458789682Q1852.2903447566553 467.19223710100937 1849.458853534614 472.99334106811824Q1846.6503825664106 478.79444503522706 1845.9827952051162 487.9104655549695ZM1940.9643625396045 538.7852265363606L1926.3695216064814 538.7852265363606L1926.3695216064814 451.6075252528638L1938.1328713175633 451.6075252528638L1939.468046040152 464.7060496865342L1940.6190587320386 464.7060496865342Q1943.933975284672 459.3883710500177 1948.0776209754642 456.0734544973841Q1952.221266666256 452.7585379447505 1957.1936414952067 451.19316068378464Q1962.1660163241575 449.604763168981 1967.9671202912657 449.604763168981L1967.9671202912657 449.604763168981Q1976.4155534497138 449.604763168981 1982.5619612243893 453.0117607369656Q1988.685348745226 456.41875830495013 1991.6779817441313 464.7060496865342L1991.6779817441313 464.7060496865342L1992.6678526591538 464.7060496865342Q1995.8216274349236 459.3883710500177 1999.9652731257154 456.16553551273506Q2004.1089188165076 452.9196797216146 2009.242435422322 451.2622214452978Q2014.3759520281367 449.604763168981 2020.1770559952454 449.604763168981L2020.1770559952454 449.604763168981Q2028.1420638231014 449.604763168981 2034.104309567074 452.3441733756713Q2040.0665553110473 455.0835835823616 2043.4735528790318 461.29905211854964Q2046.8575301931785 467.5145206547376 2046.8575301931785 477.96571589706866L2046.8575301931785 477.96571589706866L2046.8575301931785 538.7852265363606L2032.2857095138932 538.7852265363606L2032.2857095138932 480.267741280842Q2032.2857095138932 474.9730828981633 2031.042615806656 471.49702456866555Q2029.7995220994183 468.0209662391678 2027.474476461807 466.1102851706359Q2025.149430824196 464.19960410210405 2022.0877370637775 463.37087496394565Q2019.0260433033588 462.54214582578726 2015.549984973861 462.54214582578726L2015.549984973861 462.54214582578726Q2009.7488810067523 462.54214582578726 2004.845566939315 465.5347788246926Q1999.9652731257154 468.5043915697602 1996.9726401268101 474.1443537600049Q1994.0030273817422 479.7843159502496 1994.0030273817422 487.5651617474035L1994.0030273817422 487.5651617474035L1994.0030273817422 538.7852265363606L1979.4081864486195 538.7852265363606L1979.4081864486195 480.267741280842Q1979.4081864486195 474.9730828981633 1978.0730117260307 471.49702456866555Q1976.7608572572801 468.0209662391678 1974.5969533965333 466.1102851706359Q1972.4560697896243 464.19960410210405 1969.3713557753679 463.37087496394565Q1966.3096620149488 462.54214582578726 1962.994745462316 462.54214582578726L1962.994745462316 462.54214582578726Q1957.0324997183427 462.54214582578726 1951.9680438740413 465.5347788246926Q1946.9266082835777 468.5043915697602 1943.933975284672 474.1443537600049Q1940.9643625396045 479.7843159502496 1940.9643625396045 487.5651617474035L1940.9643625396045 487.5651617474035L1940.9643625396045 538.7852265363606ZM2099.4127697047243 540.7649683664056L2099.4127697047243 540.7649683664056Q2090.457890961846 540.7649683664056 2083.6669160797146 538.9463683132246Q2076.8759411975834 537.1277682600437 2072.3869916992253 533.651709930546Q2067.921062454705 530.1756516010482 2065.596016817094 525.3644185489619Q2063.2709711794823 520.5531854968756 2063.2709711794823 514.4297979760386L2063.2709711794823 514.4297979760386Q2063.2709711794823 513.6010688378801 2063.2709711794823 512.8414004612349Q2063.2709711794823 512.1047523384275 2063.432112956347 511.5983067539973L2063.432112956347 511.5983067539973L2077.8658121126055 511.5983067539973Q2077.704670335742 512.2658941152915 2077.704670335742 512.7723396997217Q2077.704670335742 513.255765030314 2077.704670335742 513.7622106147442L2077.704670335742 513.7622106147442Q2077.8658121126055 519.5633145818531 2080.76636409616 522.8782311344867Q2083.6669160797146 526.1931476871202 2088.800432685529 527.505302155871Q2093.933949291344 528.8404768784596 2100.2414988428827 528.8404768784596L2100.2414988428827 528.8404768784596Q2105.697299002426 528.8404768784596 2110.3473902776477 527.4362413943579Q2114.9974815528694 526.0320059102562 2117.7138715057226 523.1314539267017Q2120.4532817124127 520.2309019431473 2120.4532817124127 515.7419524447894L2120.4532817124127 515.7419524447894Q2120.4532817124127 510.2861522852465 2116.885142367564 507.385600301692Q2113.3400232765525 504.4850483181376 2107.5389193094443 502.8275900418208Q2101.737815342335 501.170131765504 2095.4302657907965 499.32851145848537L2095.4302657907965 499.32851145848537Q2090.1356074081177 497.8552152128704 2084.817928771601 496.0135949058517Q2079.5232703889224 494.19499485267073 2075.28754368278 491.5476656613314Q2071.0748372304743 488.90033646999206 2068.4965688006478 484.6646097638491Q2065.918300370822 480.45190331154384 2065.918300370822 473.98321198314073L2065.918300370822 473.98321198314073Q2065.918300370822 468.1821080160319 2068.335427023784 463.6931585176739Q2070.7295334229084 459.22722927315357 2075.2184829212665 456.0734544973841Q2079.684412165787 452.9196797216146 2086.061022478839 451.35430246064874Q2092.437632791891 449.78892519968286 2100.2414988428827 449.78892519968286L2100.2414988428827 449.78892519968286Q2108.5287902244663 449.78892519968286 2114.7442587606547 451.6075252528638Q2120.959727296843 453.42612530604475 2125.1033729876344 456.7410418586784Q2129.2470186784267 460.055958411312 2131.2267605084717 464.29168511745496Q2133.2295225923544 468.5043915697602 2133.2295225923544 473.3156246218465L2133.2295225923544 473.3156246218465Q2133.2295225923544 474.30549553686905 2133.2295225923544 475.22630569037835Q2133.2295225923544 476.12409559005 2133.045360561653 476.63054117448013L2133.045360561653 476.63054117448013L2118.795823436096 476.63054117448013L2118.795823436096 474.8119411212992Q2118.795823436096 471.49702456866555 2117.0693043982656 468.435330808247Q2115.3197651065975 465.3506167939907 2111.084038400455 463.46295597929657Q2106.8713319481503 461.5522749107647 2099.4127697047243 461.5522749107647L2099.4127697047243 461.5522749107647Q2094.601536652638 461.5522749107647 2091.1254783231398 462.2889230335722Q2087.6494199936424 463.04859141021734 2085.3243743560315 464.6139686711832Q2082.9993287184207 466.1793459321491 2081.848316026533 468.2511687775451Q2080.674283080809 470.3229916229412 2080.674283080809 472.99334106811824L2080.674283080809 472.99334106811824Q2080.674283080809 477.29812853577437 2083.50577430285 479.62317417338545Q2086.3142452710536 481.9251995571588 2091.0333973077895 483.4215160566115Q2095.7525493445246 484.9178325560642 2101.2313697579048 486.7364326092451L2101.2313697579048 486.7364326092451Q2107.032473725014 488.3938908855619 2113.086800484338 490.1434301772297Q2119.1411272436617 491.86994921505965 2124.1825628341257 494.5402986602368Q2129.2470186784267 497.1876278515761 2132.3087124388458 501.74563811144736Q2135.370406199264 506.30364837131856 2135.370406199264 513.7622106147442L2135.370406199264 513.7622106147442Q2135.370406199264 520.7143272737397 2132.723077007925 525.8478438795544Q2130.075747816585 531.0043807392067 2125.172433749148 534.3192972918403Q2120.292139935548 537.6342138444738 2113.7543878456318 539.1995911054397Q2107.1936155018784 540.7649683664056 2099.4127697047243 540.7649683664056Z " fill="#ffffff" transform="matrix(0.4097649987061457,0,0,0.4097649987061457,0,97.59994419190784)"/></g></svg>